<?xml version="1.0" standalone="no"?>
<!DOCTYPE svg PUBLIC "-//W3C//DTD SVG 20010904//EN"
 "http://www.w3.org/TR/2001/REC-SVG-20010904/DTD/svg10.dtd">
<svg version="1.0" xmlns="http://www.w3.org/2000/svg"
 width="630.000000pt" height="630.000000pt" viewBox="0 0 630.000000 630.000000"
 preserveAspectRatio="xMidYMid meet">
<metadata>
Created by potrace 1.11, written by Peter Selinger 2001-2013
</metadata>
<g transform="translate(0.000000,630.000000) scale(0.100000,-0.100000)"
fill="#000000" stroke="none">
<path d="M0 3150 l0 -3150 3150 0 3150 0 0 3150 0 3150 -3150 0 -3150 0 0
-3150z m2618 1674 c42 -9 109 -30 147 -48 269 -126 399 -371 418 -786 l2 -55
22 60 c52 139 161 275 276 344 79 47 208 89 298 97 141 12 301 -36 433 -130
93 -67 234 -220 307 -334 35 -56 67 -102 71 -102 4 0 38 22 75 49 141 102 345
193 497 221 82 15 260 8 328 -14 206 -65 382 -232 488 -459 162 -350 100 -806
-163 -1190 -131 -193 -540 -566 -1147 -1048 -248 -197 -458 -359 -475 -365
-31 -12 -327 439 -525 801 -127 232 -258 508 -315 665 -111 310 -171 552 -203
830 l-18 155 -18 -80 c-109 -494 -372 -1067 -765 -1670 -72 -111 -211 -305
-218 -305 -20 0 -782 605 -1006 798 -300 259 -523 478 -610 599 -116 162 -198
347 -238 535 -26 121 -31 355 -10 453 48 230 163 425 326 554 134 107 257 151
423 151 199 0 395 -69 621 -220 51 -34 93 -61 95 -59 1 2 32 49 67 104 75 115
214 266 305 331 164 117 330 156 512 118z"/>
<path d="M2415 4609 c-109 -22 -247 -113 -342 -227 -94 -111 -196 -284 -257
-436 l-16 -38 -92 87 c-164 154 -369 274 -539 315 -195 46 -345 9 -484 -121
-317 -297 -293 -850 55 -1265 138 -164 497 -483 955 -850 257 -206 384 -304
394 -304 17 0 192 276 334 526 231 407 373 744 467 1109 57 221 74 350 75 555
0 248 -34 377 -132 497 -91 113 -276 180 -418 152z m-155 -1735 c47 -19 86
-37 88 -39 2 -2 -18 -45 -44 -96 -57 -107 -154 -218 -235 -266 -184 -110 -437
-68 -600 99 -43 44 -115 146 -108 152 25 21 182 96 188 90 4 -5 24 -31 45 -57
44 -56 119 -102 194 -118 69 -16 142 0 199 44 48 36 115 121 146 185 12 23 26
42 32 42 6 0 49 -16 95 -36z"/>
<path d="M3757 4210 c-77 -14 -191 -73 -246 -128 -216 -216 -214 -718 7 -1372
95 -280 273 -647 487 -1000 103 -171 217 -340 229 -340 23 1 684 535 946 765
178 156 373 348 436 430 316 413 323 943 16 1227 -69 63 -137 102 -217 123
-225 58 -541 -72 -823 -339 l-72 -69 -22 54 c-98 241 -267 473 -418 572 -100
66 -221 95 -323 77z m1121 -1710 c23 -10 42 -22 42 -25 0 -4 -16 -39 -36 -78
-163 -327 -470 -434 -746 -261 -55 35 -157 139 -186 192 l-23 42 96 47 c93 46
97 47 107 28 24 -42 99 -112 145 -135 58 -29 162 -38 219 -20 56 19 149 113
196 197 l39 72 52 -20 c29 -11 71 -29 95 -39z"/>
</g>
</svg>
